<mxfile host="app.diagrams.net" modified="2024-07-24T06:29:58.516Z" agent="Mozilla/5.0 (Windows NT 10.0; Win64; x64) AppleWebKit/537.36 (KHTML, like Gecko) Chrome/126.0.0.0 Safari/537.36" etag="cepS8nhg93RUyUNcaL_W" version="24.7.3" type="github" pages="2">
  <diagram name="Страница — 1" id="iSsBPGG0f2yRafziYpQm">
    <mxGraphModel dx="2387" dy="541" grid="1" gridSize="10" guides="1" tooltips="1" connect="1" arrows="1" fold="1" page="1" pageScale="1" pageWidth="827" pageHeight="1169" math="0" shadow="0">
      <root>
        <mxCell id="0" />
        <mxCell id="1" parent="0" />
        <mxCell id="PfJrxKivXBuoq65aWgN6-1" value="Создание ЭН" style="rounded=1;whiteSpace=wrap;html=1;" parent="1" vertex="1">
          <mxGeometry x="80" y="100" width="120" height="60" as="geometry" />
        </mxCell>
        <mxCell id="PfJrxKivXBuoq65aWgN6-2" value="API BB" style="text;html=1;align=center;verticalAlign=middle;whiteSpace=wrap;rounded=0;" parent="1" vertex="1">
          <mxGeometry x="100" y="20" width="60" height="30" as="geometry" />
        </mxCell>
        <mxCell id="PfJrxKivXBuoq65aWgN6-5" value="ЛК ИМ" style="text;html=1;align=center;verticalAlign=middle;whiteSpace=wrap;rounded=0;" parent="1" vertex="1">
          <mxGeometry x="50" y="210" width="60" height="30" as="geometry" />
        </mxCell>
        <mxCell id="PfJrxKivXBuoq65aWgN6-6" value="ЛК СПВЗ" style="text;html=1;align=center;verticalAlign=middle;whiteSpace=wrap;rounded=0;" parent="1" vertex="1">
          <mxGeometry x="160" y="210" width="60" height="30" as="geometry" />
        </mxCell>
        <mxCell id="PfJrxKivXBuoq65aWgN6-7" value="Загрузка в 1:С Логистика" style="rounded=1;whiteSpace=wrap;html=1;" parent="1" vertex="1">
          <mxGeometry x="240" y="100" width="120" height="60" as="geometry" />
        </mxCell>
        <mxCell id="PfJrxKivXBuoq65aWgN6-8" value="Сканирование РМП 2016" style="rounded=1;whiteSpace=wrap;html=1;" parent="1" vertex="1">
          <mxGeometry x="400" y="100" width="120" height="60" as="geometry" />
        </mxCell>
        <mxCell id="PfJrxKivXBuoq65aWgN6-9" value="Загрузка межгород/город" style="rounded=1;whiteSpace=wrap;html=1;" parent="1" vertex="1">
          <mxGeometry x="820" y="100" width="120" height="60" as="geometry" />
        </mxCell>
        <mxCell id="PfJrxKivXBuoq65aWgN6-10" value="Прием груза" style="rounded=1;whiteSpace=wrap;html=1;" parent="1" vertex="1">
          <mxGeometry x="1300" y="100" width="120" height="60" as="geometry" />
        </mxCell>
        <mxCell id="PfJrxKivXBuoq65aWgN6-11" value="Взвешивание" style="rounded=1;whiteSpace=wrap;html=1;" parent="1" vertex="1">
          <mxGeometry x="550" y="100" width="120" height="60" as="geometry" />
        </mxCell>
        <mxCell id="PfJrxKivXBuoq65aWgN6-12" value="Выгрузка межгород/город" style="rounded=1;whiteSpace=wrap;html=1;" parent="1" vertex="1">
          <mxGeometry x="980" y="100" width="120" height="60" as="geometry" />
        </mxCell>
        <mxCell id="PfJrxKivXBuoq65aWgN6-13" value="Палетирование?" style="rounded=1;whiteSpace=wrap;html=1;" parent="1" vertex="1">
          <mxGeometry x="690" y="170" width="120" height="60" as="geometry" />
        </mxCell>
        <mxCell id="PfJrxKivXBuoq65aWgN6-15" value="" style="endArrow=none;dashed=1;html=1;rounded=0;exitX=0.37;exitY=-0.06;exitDx=0;exitDy=0;exitPerimeter=0;entryX=0.25;entryY=1;entryDx=0;entryDy=0;" parent="1" source="PfJrxKivXBuoq65aWgN6-1" target="PfJrxKivXBuoq65aWgN6-2" edge="1">
          <mxGeometry width="50" height="50" relative="1" as="geometry">
            <mxPoint x="28" y="100" as="sourcePoint" />
            <mxPoint x="80" y="37" as="targetPoint" />
          </mxGeometry>
        </mxCell>
        <mxCell id="PfJrxKivXBuoq65aWgN6-16" value="" style="endArrow=none;dashed=1;html=1;rounded=0;exitX=0.57;exitY=0.047;exitDx=0;exitDy=0;exitPerimeter=0;" parent="1" edge="1">
          <mxGeometry width="50" height="50" relative="1" as="geometry">
            <mxPoint x="70" y="223" as="sourcePoint" />
            <mxPoint x="122" y="160" as="targetPoint" />
          </mxGeometry>
        </mxCell>
        <mxCell id="PfJrxKivXBuoq65aWgN6-17" value="" style="endArrow=none;dashed=1;html=1;rounded=0;exitX=0.75;exitY=1;exitDx=0;exitDy=0;entryX=0.75;entryY=0;entryDx=0;entryDy=0;" parent="1" source="PfJrxKivXBuoq65aWgN6-1" target="PfJrxKivXBuoq65aWgN6-6" edge="1">
          <mxGeometry width="50" height="50" relative="1" as="geometry">
            <mxPoint x="178" y="133" as="sourcePoint" />
            <mxPoint x="230" y="70" as="targetPoint" />
          </mxGeometry>
        </mxCell>
        <mxCell id="PfJrxKivXBuoq65aWgN6-18" value="" style="endArrow=classic;html=1;rounded=0;exitX=1;exitY=0.5;exitDx=0;exitDy=0;entryX=0;entryY=0.5;entryDx=0;entryDy=0;" parent="1" source="PfJrxKivXBuoq65aWgN6-1" target="PfJrxKivXBuoq65aWgN6-7" edge="1">
          <mxGeometry width="50" height="50" relative="1" as="geometry">
            <mxPoint x="240" y="350" as="sourcePoint" />
            <mxPoint x="290" y="300" as="targetPoint" />
          </mxGeometry>
        </mxCell>
        <mxCell id="PfJrxKivXBuoq65aWgN6-19" value="" style="endArrow=classic;html=1;rounded=0;exitX=1;exitY=0.5;exitDx=0;exitDy=0;entryX=0;entryY=0.5;entryDx=0;entryDy=0;" parent="1" source="PfJrxKivXBuoq65aWgN6-7" target="PfJrxKivXBuoq65aWgN6-8" edge="1">
          <mxGeometry width="50" height="50" relative="1" as="geometry">
            <mxPoint x="360" y="140" as="sourcePoint" />
            <mxPoint x="410" y="90" as="targetPoint" />
          </mxGeometry>
        </mxCell>
        <mxCell id="PfJrxKivXBuoq65aWgN6-20" value="" style="endArrow=classic;html=1;rounded=0;entryX=0;entryY=0.5;entryDx=0;entryDy=0;" parent="1" target="PfJrxKivXBuoq65aWgN6-11" edge="1">
          <mxGeometry width="50" height="50" relative="1" as="geometry">
            <mxPoint x="520" y="130" as="sourcePoint" />
            <mxPoint x="570" y="80" as="targetPoint" />
          </mxGeometry>
        </mxCell>
        <mxCell id="PfJrxKivXBuoq65aWgN6-21" value="" style="endArrow=none;dashed=1;html=1;dashPattern=1 3;strokeWidth=2;rounded=0;entryX=0;entryY=0.5;entryDx=0;entryDy=0;exitX=1;exitY=0.5;exitDx=0;exitDy=0;" parent="1" source="PfJrxKivXBuoq65aWgN6-11" target="PfJrxKivXBuoq65aWgN6-13" edge="1">
          <mxGeometry width="50" height="50" relative="1" as="geometry">
            <mxPoint x="580" y="290" as="sourcePoint" />
            <mxPoint x="630" y="240" as="targetPoint" />
          </mxGeometry>
        </mxCell>
        <mxCell id="PfJrxKivXBuoq65aWgN6-22" value="" style="endArrow=classic;html=1;rounded=0;entryX=0;entryY=0.5;entryDx=0;entryDy=0;" parent="1" target="PfJrxKivXBuoq65aWgN6-9" edge="1">
          <mxGeometry width="50" height="50" relative="1" as="geometry">
            <mxPoint x="670" y="130" as="sourcePoint" />
            <mxPoint x="720" y="80" as="targetPoint" />
          </mxGeometry>
        </mxCell>
        <mxCell id="PfJrxKivXBuoq65aWgN6-24" value="" style="endArrow=classic;html=1;rounded=0;entryX=0;entryY=0.5;entryDx=0;entryDy=0;exitX=1;exitY=0.5;exitDx=0;exitDy=0;" parent="1" source="PfJrxKivXBuoq65aWgN6-9" target="PfJrxKivXBuoq65aWgN6-12" edge="1">
          <mxGeometry width="50" height="50" relative="1" as="geometry">
            <mxPoint x="950" y="130" as="sourcePoint" />
            <mxPoint x="1000" y="80" as="targetPoint" />
          </mxGeometry>
        </mxCell>
        <mxCell id="PfJrxKivXBuoq65aWgN6-25" value="" style="endArrow=classic;html=1;rounded=0;exitX=1;exitY=0.5;exitDx=0;exitDy=0;entryX=0;entryY=0.5;entryDx=0;entryDy=0;" parent="1" source="PfJrxKivXBuoq65aWgN6-27" target="PfJrxKivXBuoq65aWgN6-10" edge="1">
          <mxGeometry width="50" height="50" relative="1" as="geometry">
            <mxPoint x="1100" y="230" as="sourcePoint" />
            <mxPoint x="1150" y="180" as="targetPoint" />
          </mxGeometry>
        </mxCell>
        <mxCell id="PfJrxKivXBuoq65aWgN6-26" value="" style="endArrow=none;dashed=1;html=1;dashPattern=1 3;strokeWidth=2;rounded=0;entryX=0;entryY=0.5;entryDx=0;entryDy=0;exitX=1;exitY=0.5;exitDx=0;exitDy=0;" parent="1" source="PfJrxKivXBuoq65aWgN6-13" target="PfJrxKivXBuoq65aWgN6-9" edge="1">
          <mxGeometry width="50" height="50" relative="1" as="geometry">
            <mxPoint x="800" y="170" as="sourcePoint" />
            <mxPoint x="820" y="140" as="targetPoint" />
          </mxGeometry>
        </mxCell>
        <mxCell id="PfJrxKivXBuoq65aWgN6-28" value="" style="endArrow=classic;html=1;rounded=0;exitX=1;exitY=0.5;exitDx=0;exitDy=0;entryX=0;entryY=0.5;entryDx=0;entryDy=0;" parent="1" source="PfJrxKivXBuoq65aWgN6-12" target="PfJrxKivXBuoq65aWgN6-27" edge="1">
          <mxGeometry width="50" height="50" relative="1" as="geometry">
            <mxPoint x="1090" y="130" as="sourcePoint" />
            <mxPoint x="1260" y="130" as="targetPoint" />
          </mxGeometry>
        </mxCell>
        <mxCell id="PfJrxKivXBuoq65aWgN6-27" value="Сканирование РМП 2016" style="rounded=1;whiteSpace=wrap;html=1;" parent="1" vertex="1">
          <mxGeometry x="1140" y="100" width="120" height="60" as="geometry" />
        </mxCell>
        <mxCell id="PfJrxKivXBuoq65aWgN6-29" value="" style="rounded=0;whiteSpace=wrap;html=1;fillColor=none;" parent="1" vertex="1">
          <mxGeometry x="380" y="15" width="1060" height="230" as="geometry" />
        </mxCell>
        <mxCell id="PfJrxKivXBuoq65aWgN6-30" value="&lt;font style=&quot;font-size: 20px;&quot;&gt;1С:Логистика&lt;/font&gt;" style="text;html=1;align=center;verticalAlign=middle;whiteSpace=wrap;rounded=0;strokeWidth=3;" parent="1" vertex="1">
          <mxGeometry x="720" y="30" width="180" height="50" as="geometry" />
        </mxCell>
        <mxCell id="PfJrxKivXBuoq65aWgN6-31" value="Выдача посылки" style="rounded=1;whiteSpace=wrap;html=1;" parent="1" vertex="1">
          <mxGeometry x="1480" y="100" width="120" height="60" as="geometry" />
        </mxCell>
        <mxCell id="PfJrxKivXBuoq65aWgN6-32" value="ЛК СПВЗ" style="text;html=1;align=center;verticalAlign=middle;whiteSpace=wrap;rounded=0;" parent="1" vertex="1">
          <mxGeometry x="1520" y="40" width="60" height="30" as="geometry" />
        </mxCell>
        <mxCell id="PfJrxKivXBuoq65aWgN6-33" value="" style="endArrow=none;dashed=1;html=1;dashPattern=1 3;strokeWidth=2;rounded=0;exitX=0.5;exitY=0;exitDx=0;exitDy=0;" parent="1" source="PfJrxKivXBuoq65aWgN6-31" target="PfJrxKivXBuoq65aWgN6-32" edge="1">
          <mxGeometry width="50" height="50" relative="1" as="geometry">
            <mxPoint x="1520" y="130" as="sourcePoint" />
            <mxPoint x="1570" y="80" as="targetPoint" />
          </mxGeometry>
        </mxCell>
        <mxCell id="PfJrxKivXBuoq65aWgN6-34" value="" style="endArrow=classic;html=1;rounded=0;entryX=0;entryY=0.5;entryDx=0;entryDy=0;" parent="1" source="PfJrxKivXBuoq65aWgN6-29" target="PfJrxKivXBuoq65aWgN6-31" edge="1">
          <mxGeometry width="50" height="50" relative="1" as="geometry">
            <mxPoint x="1420" y="140" as="sourcePoint" />
            <mxPoint x="1470" y="90" as="targetPoint" />
          </mxGeometry>
        </mxCell>
        <mxCell id="bSGgFxx1YECm3IIDfIOq-1" value="ЛКП" style="text;html=1;align=center;verticalAlign=middle;whiteSpace=wrap;rounded=0;" vertex="1" parent="1">
          <mxGeometry x="-10" y="150" width="60" height="30" as="geometry" />
        </mxCell>
        <mxCell id="bSGgFxx1YECm3IIDfIOq-2" value="Авито" style="text;html=1;align=center;verticalAlign=middle;whiteSpace=wrap;rounded=0;" vertex="1" parent="1">
          <mxGeometry y="50" width="60" height="30" as="geometry" />
        </mxCell>
        <mxCell id="bSGgFxx1YECm3IIDfIOq-3" value="" style="endArrow=none;dashed=1;html=1;dashPattern=1 3;strokeWidth=2;rounded=0;entryX=0;entryY=0.5;entryDx=0;entryDy=0;" edge="1" parent="1" source="bSGgFxx1YECm3IIDfIOq-2" target="PfJrxKivXBuoq65aWgN6-1">
          <mxGeometry width="50" height="50" relative="1" as="geometry">
            <mxPoint x="70" y="70" as="sourcePoint" />
            <mxPoint x="120" y="20" as="targetPoint" />
          </mxGeometry>
        </mxCell>
        <mxCell id="bSGgFxx1YECm3IIDfIOq-4" value="" style="endArrow=none;dashed=1;html=1;dashPattern=1 3;strokeWidth=2;rounded=0;entryX=0;entryY=0.75;entryDx=0;entryDy=0;" edge="1" parent="1" source="bSGgFxx1YECm3IIDfIOq-1" target="PfJrxKivXBuoq65aWgN6-1">
          <mxGeometry width="50" height="50" relative="1" as="geometry">
            <mxPoint x="510" y="250" as="sourcePoint" />
            <mxPoint x="560" y="200" as="targetPoint" />
            <Array as="points">
              <mxPoint x="60" y="160" />
            </Array>
          </mxGeometry>
        </mxCell>
        <mxCell id="bSGgFxx1YECm3IIDfIOq-5" value="Индив. API" style="text;html=1;align=center;verticalAlign=middle;whiteSpace=wrap;rounded=0;" vertex="1" parent="1">
          <mxGeometry x="180" y="40" width="60" height="30" as="geometry" />
        </mxCell>
        <mxCell id="bSGgFxx1YECm3IIDfIOq-6" value="" style="endArrow=none;dashed=1;html=1;dashPattern=1 3;strokeWidth=2;rounded=0;exitX=0.75;exitY=0;exitDx=0;exitDy=0;" edge="1" parent="1" source="PfJrxKivXBuoq65aWgN6-1">
          <mxGeometry width="50" height="50" relative="1" as="geometry">
            <mxPoint x="160" y="100" as="sourcePoint" />
            <mxPoint x="200" y="60" as="targetPoint" />
          </mxGeometry>
        </mxCell>
      </root>
    </mxGraphModel>
  </diagram>
  <diagram id="0EbZxDrNh32O3bjWXzVi" name="Страница — 2">
    <mxGraphModel dx="1008" dy="618" grid="1" gridSize="10" guides="1" tooltips="1" connect="1" arrows="1" fold="1" page="1" pageScale="1" pageWidth="827" pageHeight="1169" math="0" shadow="0">
      <root>
        <mxCell id="0" />
        <mxCell id="1" parent="0" />
        <mxCell id="v2qxCZSfZdPtIH1DSBiw-1" value="Отправитель" style="shape=umlActor;verticalLabelPosition=bottom;verticalAlign=top;html=1;outlineConnect=0;" vertex="1" parent="1">
          <mxGeometry x="190" y="290" width="30" height="60" as="geometry" />
        </mxCell>
        <mxCell id="v2qxCZSfZdPtIH1DSBiw-2" value="" style="shape=image;verticalLabelPosition=bottom;labelBackgroundColor=default;verticalAlign=top;aspect=fixed;imageAspect=0;image=data:image/png,iVBORw0KGgoAAAANSUhEUgAAAp8AAADFCAIAAACdAA7nAAAACXBIWXMAABJ0AAASdAHeZh94AAAgAElEQVR4nO29a1BUV7r///VfpypWykt5izimBX42LRiGQhBruIToRIySOIOXwIlWDuoRqCSO4Hi0FDXDGMVUGEfx5FKAEYkFCQSRGSNNgBwcAs2UXKQYDNi00920DiQIlpeaMq/8v9i7u3d37917d9PQm+b5FC/ovVfvtfZaz1rPWs/zrNXTQBAEQRCET/Ds2TPmn//gfiCcM23aNKqrqQM1N+EGJDaEF5k2bZrl///Pi+UgCIIgCGI8IO1OEARBEL4GaXeCIAiC8DVIuxMEQRCEr0HanSAIgiB8DdLuBEEQBOFrkHYnCIIgCF+DtDtBEARB+Bqk3QmCIAjC1yDtThAEQRC+Bml3giAIgvA1SLsTBEEQhK9B2p0gCIKYOHT5GbGxsbEZap3QBcIT/Ie3C0DIH51OfS2vuqKnBwAQGpqcdCBzg9IhlTo/r/oHYPmBgkylpBvEmNHlZ+T9IHx7OW9LEXJFp87Iq3Zyf3lSQeaGCSvNONKj0Wigqe4v2KAEoLtWUajRANACPvF6MuIZIY0pWVc1Z2P4hCYm/Wy/Tbp+c7oYuxvPatLZ76TXTGC5x478m7ufv224zWTfGMR4MwaxEW1PX2lOzovGxMT42tt5Fa740dqdcIpOW6EBAMSkp4cCPYWFzEdNYVZQD/pbaDVOEJ5CFWrVdRqNhv3PqgBDJ75I44Iys6UfGalZhRrza8ak15QUkJnJs5B2J5yiVCXb9LuCAp06IzWxUANAk5WnziwgU5r3iTlrN89SZ0xLLPRacQj3UG4oaDF3J11+bFCWBkDM2RJfnEMrMwtaMgu8XQrfRnpUnU6dnxE7zUxsRr5O+K7tbZ06I9YO6202niI2NjY2X22bIeeO5Ly42XEvq/PZjNU6nuKYS2VbAFfgydR8xS5URKfOiOWWni+URJfPV7x8sZATJsdp3IfHZuTzRKpIKYOZDZl2U2rlhoISs2GtsNr9KhPBDcGAqGyIibHPwglb4jY+//tLFQ9+MWUbxdLjbHLg9BOxLjMu/dSHkDTkCg1HkluHG/lmP56pHa7wjr2WbzL9WEoavrcVkgarPHheyJ1KuCvV6D0hl2DM53UIWdyoAu4i832+2/z3OI5Zmxsch4xIXtwUXDev2fcbc7Zf2Lkl5vdxUlcOmfK6oQWztvNIWzzVzhIJl8Hpe0ktg8SsHIXAM353lwVD+NWsX3YuxvZg8vjdBevcfINNGZOe7lADkuqQr5qEkjIpnXcAbj8U6DLu91Pv4iGxEW5bm7v8jSQ6HEluHet9e5Hiu8I39loHMzvBcJJG8gvb5O9xIXcu4a5U48QJOTjiJ2ntrstPzTI7X2v6+/v7a85y6s9y11LJbFsVJjrMP2JY0pOCmAv9P2g4t61LQd21Cg0sHifND/2u5yWIKpQphEOxQlUeM4Cx5Qdikl83P9ShGvtrzNVoW3ydtoctV3p6Oo+oisCRPaZyNBXXrBNwiWWweZn8DDvyKsz3erT2M15NVqrtLNQtE7GLggEJsuFcjKcEmsJCDWJi0s/WWN9dk5VnaXeXxMPcRDHpNTU1NfaVqXw9mfnMkT7rV6y9woJDl5mIfjo5cXkYdKhbl1vHXdQZ4t1fShoLMcygmJ6enh7D33s9J+TOJRyTQsjFZgO8i2GHu3yzF7v5Cc/3WamMOcsqIjaJ/SzMbsYpnJdQdo7TTP5rTnFSV3aZ8i1X+SfjfCnN14Tnuk7L4LhWFVlgiyyunUbyOla7MK6s3V0TjGcSZENyPZpx0twyweW1O690iBichMTDvj4lmK9sSiWhy/C/i8zxkNg4Wbu7PORKG454W2dMa3e7MYF3PONN46Q6eMbJ8RJyUQmXXo0TJ+RwLWbeOt1YHuTkLtCvVvfb3tT80A84m4JYVqlQLY8BNCisVhds2GBeoCUfSPrBHKTtel49JzIyzJtHe3owMfScyMio7ilk5qLpNdaYM77VPIAg5r2ZRTDj4LZWigC6/NjUCu6F5KMtnG2wPVq1GgC01SeyNEBM+tkDG1wtAxclN5KXxRrQy0OMbXKnaQVwTTAgQTaswf98YjxlSE+yCIry9eSYLA2n3V0TD8sSRag+lZlH07MSC5mFTWamEurqQs7jLWsdwS5D8OLKMChct1JbZwzlZNfIMTExgkOAlDSu4yEhF5VwyFzIXYmZd24r0GQlJrqcvbn+QlUb2FYorFYXBGnZMfx1JZijOuxkVlpeGk2h5wRGKtZMY87287ahbTUqVaGMVFkxVwpHRmGfwPbFbDfKSKgd0TLYwInkNWOJyXYUCocYX3fit90UDEh4+ylv1xVHiniY51/OzLgbktJRaBn5+m3GPSviXYbgRUJHd1a30lrHLWKWB6kzzCH/R5MrEnlGFylpxhNRIZci4ZC1kLui3flXdmZiztYcVdldC9og7TVilgdBGcSM4j1aNTO0M/XDTql6tDrOKUbS8oqJSQ81672engnS9DEx6aGhPYWFGmiygmL5NoQ7r0aOUAnOGDcknU0H54Sy5bbTgPSa/gNBANB/LTUxS6MpzAqC6pmNRImVQQzzBHW8F8ISBYP7JkKyodOyH8b67lMACVVkWQI5nSxZRr6sPLUKAupDvMsQvEgYBp3WraTWcY+K1EQ2MKAkM+hahdtpxhHRcViShEPOQi5Bu1tmNbx2ds6cJ2iDq4OmjQ2ataFoKk6csI7hNgYiF/MKPVpgUWnqjMKJmRsymR5YHhuUpYEmKzX/dbYdBarRoifNMmQWKqdrIpFd5kolk2VmydmKoCwNWLu25DKIoMs/YVbu7o4FOp3OUky+264JBiTIhnMxnjJwxjSrhZdtdxfEwyKlFq8PP+aRD4UnTjBX0o/aj2uCXYbgxZVh0HndSmkdt2Bti+k1LZlKISO/lDRu4gkhlyrhkLGQS4mZD1rOiSjU6XQ6nU6dHzttGhNeuCGJDczOSrXb9JcvtHfRgtX+qoQlAJFpdVZvKFXM6psJjh5LXhOKMvOouaSWWE1z4ZlqBADorNGi6UkbmC2sQVmiyl0yDiETEspg/4j82GnMrnkWdQZ7ygbcHgvUGdOCgoKCgqYJ7nNwVTAgQTaci/FUQZMVFJuv1ul0akvksLXdpYmHTq3OMMdsh6JfzXLNbE3q0arVlr3DGw6wcUUaEXcTX5cheHF5GBSsWwmt88M1tn0tE26BKw4KWop3eXw80GMVcpckHPIWcvE4PP54aIH97A7nBgsHK9sGh3Of5BCKbf8sgbyEspvgmPlnvOGRwmHl6TV2t8X27zstAxw2WYieFyD4eCcbMgVCqMX3u4tvgHddMByL6igbzsXYAfhkzLxjO0o6DYFHsJ0iIPVO5VpALihmXvgmm0R8yBXqc6KtIxXbEHHeIcc+SF44jZPqkBQzz1868Xezi2x3ik1J5SPkcHW/O5SZLf12m/1i0mvMFgtlZot1x6Bl/oKYmGQRQ6+Dh9myfVBw5ep2XhOOdYp4wjzBtis8Q0z62X5bp3hM+ljjLjQajTnuLiYmvYbr5JFYBljTlzhu82QeOuZZt6DT3g3BgATZcC7GU4P0szatH8MYRi24Kh4SsLQdnCxqAPB2GYIX14dBobqV3jquEHO2RNSqJyWNm5CQW3FhYtDPIHJbOIEHmci8WFyrK2cIld0TryO1YlytP4/Vt/3C3POIVYG0N/Fcc3sfh627ou8vWIVs8wm1Hs/tyfojge4xsWIz9mFwrK1jOZnC65YVTwm56xL+TD5CDvd/I044DkrKbY8ykXl5HKHCe+KlpD7D1bw8VOHmkLzx3PMpVtRJLTseQbwGPFdHloAlz60NCTNjbiYfbp0pL+TSf0WGIDwAG+hHh5ZMGWQ57hEs1DoeQZ7V6OLanSDGhjKzpP91WjxPYoKWp6enA0IxE3a3rbsnZTXuEQA80zpBSenpAJbLLfDJfVyTcMhXyKcBYIz1hCjTpk2jupo6UHMTbkBiQ3gRrviRZZ4gCIIgfA3S7gRBEATha5B2JwiCIAhfg7Q7QRAEQfgapN0JgiAIwtcg7U4QBEEQvgZpd4IgCILwNUi7EwRBEISvMc3bBSAIgiAIwjNYTrP5DwBbj0d5tTCThsr326iupg7U3IQbkNgQXqTy/TbL/2SZJwiCIAhfg7Q7QRAEQfgapN0JgiAIwtcg7U4QBEEQvgZpd4IgCILwNUi7EwRBEISvQdqdIAiCIHyN//B2AQDgSf9Pt3v/jQVzIqNne7ss3uXpUOvQvWH7q4vjAvzm2l4afahrfmD68SmAWaGLli2bPcPVBBLTEByGWg2OrWPm+cW/ecFvIktDTAaetBpuC8oMgDnLfjN7hvXj06HWR/eGRx/9CGD6rIXPL46b5Td3uuPX3BXFp0N/HbrnMNIOtRruDT+/7DcvzHCazFzCoXuwucW84+wFc/yiue/C98VhzI4LUI7DOENKxBE5aPenQ9eNehOAp7OXzR6Php80jD7qVQ+POF4PsdXu/YbKS8MAoJg5z/RYb3qsV88MfDs4MkhyAolpCBse3lMP653cD3nBj2qPsOHpUM+w3uQsxWKzdn/Sb2i7xO3+j0dM0LcDCv/1aS/Yak23RfHne+3DesXzy6JhfeDoT73q4RGF/zLnyZhCthqa1Y9hc+vhbbYww/PwyzXRPHMRAEN//UdzO/PvHOVvPK6ASYnwIAPtPvrIZMI8xcwR02PT7adKAeGYOszboIpa9hz3is2SevSnxkvDwIK4LFblP+k31F4a1l8yLD4e4CclgcQ0BC8K/7gts+yHvNuGZvVj75SHkDXTlWm/9Bs1fxoZqr00bNPB505nZanfUHtpGJgZ+HZAZJB5DBx92HFZqzcZa4vgoOA9JopPbo+OAPNC7R/Fw+hPbUIPV8ycZ3o8oh4aiuYbQEZ/6m03p3GpcBIhJcKH9/3uQ83GEcxUbFkUCIz0PHoimPBhR1FfR//TCSyat3huxtzp3D/uvaFm4wgQ+LZ1NT8jKCBuJYDhe/2SEkhMQwhh1zozLAP0VGfq9FCXcJST5xyuPOy4NAzMDM8Ktqp2AHNnR6apAgGYjLf5OqYnRPHpUM9jYKZimahGfKq7bBTWzXMVwgPIk9ujI5gZvlr6mto1WZKsRKYWXl+7P7zXDijm+s2dPWMl9O3G2/0v8BuHR39+ZHqM+4DMjJ9PRh/evjz4yPxx1uqAZUHTre4rPj86ACzwi3Rngvn0yY8AFiy2rQS/kAVoH9b3PowMek4swWwJDyHH1dgY/anx8qhiS7ASD3XNg6YfAQAL50b9xmH5xfgLr4+y8rNwbkjcC1wvzJN+w+1eOHhngdGHHc0PYBeTMfpT4+XRWasDbDQEHnYUDT4KDWBMpk9a+9p6oNgSbGu9fDr0V0Pvj3Oj0l6Y4Wqm1rsy7aHy50nroB7AykV8JuXZkW8v0F8at445+shkEsrarpCGLhPmrVyAdj7vIeAX5z+v3chXzoe31Y+h8PebB6c+Cm6pXJIlKUrkoa5okJv7rIVzF3P7mnjfkTSYO1UHE423tXv/A73ZKDRjEmqXJ619terHAOYpFsxa+FTf/njk0j/0HD/ZEyGvm+L5ZdFutPrPD02A4nn7L857fh4w8uPPTwDRBDMkPIQWo2Ni5N8jpsezbv/UqDaOAPMUM2F6PGJ6XNv+7zhbxwcrP4qZgQunA08ftRub20c50Q9Ph64z8jOMkCjOgPVUd1nLyhU3JmPk3yMOY+LQX7V6E7DwZ2A6gBnzp4+YhkeaH9r4Pkcf9bY/HlHMdSdTYsw8GX4MIDBEYNxjOmb7g6HfzPa014xdjgtmbYGxySv8o+LQ1i6QZu4shQIj7YO6OFvPt3WQfyTwzbEhRYn0P+gyPYZiQeBC5vNTfbtR3z4anmWe5kroO6KDuag6mGC8rN2HeoetRqGgOYEY1o+LEI8P/YZa9WNggWXIjvzN06G//qO53djWOmtN9HRgujItSgnA3PCBb0eJhq2NqA2NPez/9qHsoz+L9A/RBBLTEGNGrzZipWo9u/x9qiv6R5dpuLfVz89is2Hkh9v54x52nNXqr/+0LIi5wszDZs4zPeZcNHsZVy5A+/Cj+08RJGgEetLa12w3FvP1MsbzGrjaM5kSLsLY0mbOnidwf+5zswCPuqv/PdT/cAZ+vnfdqDdh3kqV2KDETAJmhm95YQZ+Ek423S90Juw9309114eBBSHR0zE6LgOPdCUyL9S6yI4MMVReGnbipHfoO2KDubg6mGi863e3WFSYj7MXO3puRp8+Yf5Y6f75ieXKRJfWnqHeYTDea+u16X5x/vPc9v3MfW6WYuY8BWYtnA5gxPRYr9bWnu3rIF/4ZGSlaqvVsj1ducVeMJhRKXwLZ14/d/bilYBpdGiU85yFi0JsLzJeTEXI8wBGhn8WLAC73pppqzUcexnjebX11EjPVMY91Ld4+mRUPJEkTMNdl7TNl1jVHiUWwc7a5DeI72SbEe3g+WYt/3MkLdjckSUJSsQN+PuOMzyvDsaMV9fuHIsKg73rd/SnxrO2cRxqba3a/P9K1VbP76yQDr/3mjVPmf7tln17dmSazRsxk0QKZZ+MzFtgs/GBXYFZBYORH2Dk4RBHxJ9gJvD44Qgw12plYfqFeZ3xdKjnMRT+fkHPPXTmSXnYcdY4ggVxW57vPWsT58z6Ry3rcrvx16VMZd1DfYzpHjuOQrEgfPUcdu3erq390anp2GKTl7T6nL3Y1vPNxLuFx0kQA/dkSVSJ2PAzO0MaeXT7+jAUC0L4X0qw7wgzHupgrHhRuzMWm5mz8PNQv3UpYONhmjsr5G0Ve+P+g171MFb6h4SYB8153h04fn7oLETk6ZNRYMy9cUZ0QHjPP7pMnnkaIScY+XncdUl4+Bj59wgzS2DsjT2PnkRPn8FYyDfMmgHhVTvjMmRXEj/12t1jR5zRodEXlHPNZnmL59WlTGXdQycX5indRPC8X9DsGYBf0AuL/9rm1HTMtclLwla52i2sneKOLElQIhxGuNMFYN7KObwv5azvCDIR6sBVvKfdmRUDHuvVjx2OZbC4J6f7Wdx7837uVQMLZvlNDoefpyba02csBEzmnm+//jMz8u8RAAufmzEXIgkg4SEeKTghiQVxwlaZJ/efApg1fzowffFK6NtHh0Zf8GM2Fy2bDmC2AuBdFvQbmtsxb8MvI4MAHnMu1z8KO7O8i5lO3h4qH5g+DsFohv4HevCFwXoCv9+oAtu1eoF96tJt8laC/MIVw13tg7q42X63B/XWeA5RXJclSUrEyrwNlsN2ng61GprV2lo4mARE+o57eM7u4gpe0+7sEQobfhm1zPbGyFDtpeERZsXgnaJJ5LnZCoBnVS0Qke4mdhE3/JkyIzJjChZNIOUhhOdhLN5WwRCSHzvYpjfbyR+CsZDPhVkrODxheKhRPezclDpj2dx56scjPY+eLAOfW9T1TIkxwNSz0KDHOHQlnTbjDowtnUcXAqO9LtjkLVjmjj/BMZ7Do4xBiUz3Y8yidkt8CX1HgIlRB67hrag66xEK9qcxBM0JhENgkRyZ7hc6E3jc1fyQe5XZuuqxrtg/1GXimrZ4M314W/2YjUoVTyDlIYQHGFEbuOGQzAlCHMFgW8F0W/DIDmajFEvQnEBgpGfQZLIuhmYsmMmTb/uwuCl17gtM0Fzb5VE7t6h7mRJjIsgvXAGYjG1/fWgXfmWO3B7HjukXsgC8kV+mxy7Z5C3MWDZ3HjCiNnaZMG+D37gFDI1RifDY0iX1HX4mRB24iJfW7oxFhd8fM3vZhpl6teOBgs/NUszE/AkrojgzohcFqh/r27WNPy5QrJ4zA3jSO9jV7sZsl+GprugfXZgZGLpo8XwAPz/pHe1qf2wXVm3NFP4hIc/h/oPenuERWHuRaAKJaYgx81h/qe3RSv+QkOee9A52OYzRbCuo/9E4bPEv/vykd7Trx+lxaQF+rNnGYtNj1liPR7AgxGYxxOOvDXw7WNSUyq4XTTAvyhncz1SGPXTyMF25xd901jjSrq39cWbgwrmLQ557cv+BqWd4xARgZnjWeAbVMrZ0cxwGF9ds8hbmvhCy0tjcDmlH4PEiQZbcUCLDj4ZGMQN4MvLo3nWjnm/Ek9J3ePG0OvAA3tHuzk82tpoNuXaVufbx5DJgdmSWanbzYFf78Mgl9hCjeSv9eY8kk8B0v9UL5l0a1ps4PiTFgrgtdieHzI7MUuGyVt9uNG/HtD2bWjyBxDTEmJi34ZdRGGpTm2uYaUqbJLMjj/9y9l8NXdZWADAzkDvicGx6jD7mWtFnzJ8OPLb314pvXwZg3hnM2w3dyBTy7KGTh7kvrMl6Ttc82NX+WG96rDfLw7yV/nbHF44DvPvUMRa1xIqNxHg6RyTIkmtKhD0RyK6jBdgfGCqx7/DjWXXgAaYB2Ho8yku5TzIq328Tqqsno08BzOD7rUbXYTe2ij2NSeYkXkM0gcQ0UxQnzS1Cv6Hy0rAlhOfJ6FOIHQDOyI9oMo/CHLAz03pcF+EJ3BcbC+z2buqVnsejA7WXc+Gl8v22Z8+eMf97+yRaX8GjDSmxV4smk/IcGkHGHSmy4YWBwJlhk/Aq9LtE48bEdDSv6HVHvP8bcQRBTDzs7wRK3a1EEMQkg7Q7QUxBHt5rx7juViIIwruQZZ4gPE1QwNbjAd4uhHNmRx6PivR2IQiCGD9o7U4QBEEQvsY0bxeAIAiCIAjPYBMzX971Z68WZtKQEv57qqupAzU34QYkNoQXSQn/veV/sswTBEEQhK9B2p0gCIIgfA3S7gRBEATha5B2JwiCIAhfg7Q7QRAEQfgapN0JgiAIwtcg7U4QBEEQvoYcT6Idam66ev1HBIambQ/xdlm8BlMJi1PfTFTw3Tb11pT0tGoHASx5LWFjfIifwsUEEtNMOEOlX1/VA4Fr0rbPt7lu6u1kS7toyWuhG7eH+Dl+VyyNlIc4oav06za90M2FUUfjw115GjFluN91orHNYUDrKv26Tb9w49F4P+E07NdLG9tgc4vpJosDQyOcyfD9rtLGNj0EhxHCp5Ghdr/fWVjd0A1gcHF8yFQUSlNv0ZGihm4AWLv6TTjWQPPXKXtaASAsQNVtaOguasgLWPvx3rQ4yQkkppl4mr/OzGtl/o3a/qZZWd7vOlF2qtIAQBUWgO7Whu7Whm+jD3/xJkebiqaR8hDn9LbltTY4ub86Pty7tUfIlOG2ytaGsIU2s0lT0+W8Vm1Y0kYnaQAAQ6Vlp/IMsLnVe5UVxdZWZH9gOw+20HUi91Ql829o4tGpu1KasshPu5t+aO2GKixA221obbqfKCC4vspQ6def5LVqEbA2DA3dBp4UpqZje1qB6MNX3wxXAMBQ89eZe1ob9nwd1fVmuJQEEtN4gd6iPa3MbEPLuTpUWnaq0oCwpPwvmFUOhkrPZea1njoRWm4es0TTSHmIJMKSDp9cbj/+NpWdyjO49crEFGWoqUsLqF6zlyV7TE2fCIkW01PyGru28/VZU9PlSjj2JmLqIDu/e1dJtRYB0ScT1gLab38Y8nZ5Jpbeq3mt2JqW37V342v8KbpKqrXA2o9ZrQzAL+7Nw1sBtLY1S0ogMc3E03WiqAEBqScTlthcvt/5rQEISD0ZbxkH/bYnrAVQ2dMlNY2Uh0jFTzHf/s/FJxBTHlYgo+Odr17u1xypFtbN4dHCfXaoqUuLgNR0chZNXeS2du9tqwTCwiMUIb/YiobK6qvN8V62FYsxZOq9eqR+wPxxSfq2jXGW4Z71e/Hg4FcGAISkmU+oFpjW3P+XFkB0lG2dhK+ORmVrw/XetLgFYglCJDxEaC17v+ZE4z27a6vXpMXZO8iFK0QYZqmxNSFRgSKbG8P3uhmR4F4MidqKhsrWtuY3w+OkpJHyEM9hajp2pCv65N5E9NaU1Lcyw7Mq/L2j8TyxAs1NVwu72OpShW9JjQ9XcO9+ffU6gNCNR20NtqbeopIeAFGp1ikak++S9G22LdJb9F/1A69tY+y3Q6XnPvkW0Sf32vq87nedKLusDX/vi3g/VzMl3MD0Q2s3K+1OGCotK+mGams0Klt5dXxEalJrZTVfn+29mmdAWFKEP1o9V2piciGztXtzT4PZWhW+OhpAw/Veb5fJGUOl5zI3FjV0G4BFS1TQdhsa9uRm/leTRTf/69vWhkq+PzfNEoyWWmivJPwXqgBoh4fEE0h5iACmH1orWxsqWwe0gwPawQFta0Nla8P1YW4S0QoRgFmjRB+WbCT3CwwYexopD3EH44/absO9pqZjG4tKKg0A0G3QVlZnhn9tZycYKj2Xuae6AViiWrREBVRWn9p4rsi6FLvfWcgITNFVm/XZ/ZojRYwgtRnt8x3gXmEsIt0GrZ5tJj//RdpuQ0mJbbcy/XC50mK/dTFTwmXYFfna1U6lnbHJhyW9l7pQMI1ieXQYUFlfY7K9zhlIiSmLvLR71/VWq7UqLtQ9w+nE0fx1Zp4BiD7c9ecPvngz7eje8q7sw1uB7upPSu8DAOYnfvHn8q4/l3f9Of9AAIC1H7Mfy7/gWcaJYxoeGGMCiWl4Mf6oBVQHsj/4Yu8HX+z94GSSyi6BeIUI0NxY0o21Hwu7/Lu7Ok08lweM911II+UhnqMhr1q7NS2/688ffLH3g67s1DAArZe59cBUV1hS/hd7046+mXZ07wdX09bC0FBomQwx87AAFcC5aI5N2RqtEiv8UOk5c1yVGb5uxfiA16YzMjnWTAkBfuxs7u1qbir6r9ySbqi2pjm1SjIzABtfEh/zI14LAAytTdwWuV9T2ApEb5liQUuEHbLS7hazPPMxJMrbnmDndF1vBex00vzw1CSVj0YMDBkHASzxFxwy3K0QJpguaSP/YBey8UAAYCg58nWX6f6Q6f6Q6X5X6de2oUaiaaQ8xNNsTSu3WrbnJ560rwdmLmszfCtCorY6zEJUCVtsLzIu1ejVCwFYFuU8sIu/ANtJmGO3YnzAtp4atzMlhOhuLbgeCg0AACAASURBVNlTdGpPdUM3VFvT3nNqpmJt8ge2iW4aYsJHbPoXa/YPJZf7FEdOfncHa5IET7AX4fdeQ7E8Oqxa2/3jEOBjZrEhvQEIWOwvdN/NChkqrW9wukbx274tVV9WUtl6aqPFhxigCgO6XUgj5SGeRRW4wOazYsESgFMPTHUBxt4ujqH7XwgADPeMgMJqZWE6gnkLyf3Obw0IS4qIW3AP0GqHh8C747m3aGO1FtGHTy68vNHAvRGemqSqrG4obNoYF+8HB2UwpkwJYcKiU9NDf4HhtsLqhsqiTK11+4Y9Fpu8pMU3Ez5iDVFiApNTU2U4ZhITiny0O2NNCliC4a5m68pABWgre7qOhshvHjp8z5liGPyXCb4VecRoo0W/EHwptyqEGci2pjldo8xPPLo38eh9VjD8F4Qr5g+VnsvsNnAMCaJppDxkImGqy1Cyp0gwCeMKCVyAuNC1aG349oeh7fF+jIX8wHI/OFtAd50oamDtKE2X7e6x862uTlN8osJslrf4gMeQKeGUhRFxIX4ICY+Ljzrx+1OV1Z+ULufbqi7RJm/FdhVkZwElpi6y0e7MAgKGhrwihwNDWi+XrgmfZD4kJ1pwDNiv/8wYf9QCUC3wU0AkgZSH8GY9VnMff4UwqgWVRSl27mG0ngpvBaIPW/ffzw/nhIILGBJE00h5yETCfUF7OK6Q+VFb0VDZ1WmKj2B2OsXPB7A4DOA1ijR/faoSqgPZaXEAT6jB/IjXAkrY8yRgZ5Z3P1NCMuFH09ZWFjXwbVWXbpO3ErcmNay1pLK+JjUkoqm+wRpCQUxp5KLd2bMdDmS/F297w9iYuadVyywgvFM0IRYsDgO6HZekAhHp45kpMyIzpmDRBFIe4gjbQAJ3nTzWeYX4+Yev3brI9trgQKVBiwDV1kVLECpkurwsukARTSPlIR6EsXhb60GouuxgJx9mO3kvGAu5AsD8X6j4nqBvPJbX6tyu6xcfrsozaL/9YSgefJM21zMlXIPdjemwbum67IJN3oJlutYExxAKYqoik6g669kO9ueEMCG+AtHOXoWNVrXbXDRUWj+ee1F4M+29mmcwh8iKJpDyEEec33VSNrEKiYtPO/qm7R9zms2iLUffTDvK69w1byhytkARTSPlIWNCm1fG2dvGniDEqQfeaGcbhvQG64e40LWA9tv61m5rmXl39GkrW8Xtuop4JmjukyNddj5a9zIlXIXZ8WsfbdptcMkmb8EvPlwFaPOqS7qhOrBGfn5MwgvIY+3OWH35V1EhGw8ENOTJ8VRav+0Ja/OKGiqLjmmjo9NDfwH863p9SaUbU28LnNNvtAYAA4VfF10HOOeHWDNF0pbVC2DsufxtqxbWLi2aQGIaC0OlX1/9trUBQBjaTnzdZr0zqAWgrS860bN49ZuJceNRIQDQdeLcZYRHr17wC4AtqsOGItE0Uh7iaQwNe34/sDVpy+oF/7peX1IJu+kRW115ucf0SVtWM0aR4X9d7yrRLjr8xZvh9oEOzGrPoEX0Fpsym0PwOKz9eK+oXZdZl2u7YV6UM7ifKeEajDndHP1gwTWbvAVF/Jat1acqIeH8O2KqIAvt7vzIZasVUXbG+ZC0q2mLS+pLKlu1e9hIbNXWJN4jyaQxbPc7JdruVi0TqrbacjpYSNrVNBwpaqisNm9lDlj7Mfd4MtEEEtOwDOlbmZ+0Qbf5Hy7dhoZugypwTWLc/HGoEADwC4Q2r1prdczzFFU0jZSHeBbVgez30PhJnrmGw6IPn7RzsoakdWUvPlFWYm0FAAFruXMsjkeD0cdcK7qf/yLAMGC8D+6LSJyyMEFzvP3OjUwJl+FGP5hrcgzzYLalKJ6OMDMNQLn59FPCOSnhvxeqqyHTfQB+iokc7+4PmQDMF/7ZVtEEktJ0nfj9KSe7d9BbFF40cMD+h6o8XyGm+0MAnB/qLppGykPMOGluEZq/TtnTqjLXyZDpvmiOTHVJLJiHuF/zX7kl3QGpV8UX+oR03BcbghgzKeG/f/bsGfO/LNbuPsDE6nUG52pbSgKJadzB8xUiRfOJpvHGL75IqQovyI8zdxhBEJMemUTVEQQxobC/E0hbpwjCR6G1OyGCX2D0Wucb4bZGe3XLOOEGvW2VoK1TBOHDkHYnRPDb/maas/vzE4++OVFlmSTEvVneJfM6CUnr+rPTZiUIYnJDlnmCIAiC8DWmebsABEEQBEF4BpuYeY3hG68WZtIQE/AG1dXUgZqbcAMSG8KLxAS8YfmfLPMEQRAE4WuQdicIgiAIX4O0O0EQBEH4GqTdCYIgCMLXIO1OEARBEL4GaXeCIAiC8DVIuxMEQRCEryGvk2jvXvi4TGf5pHg5YbFizcoXvVggLzB4t/FGWf33uj4gOODVhC0paxYJJb3b+JeyepN/xp4Urx7zftfY3lLw9+/6DECA8o1fbdtl32SiCSSmkQ1MG5l0fQZlcIB/wpbYNYtkXFpCPjiRnMHW7MvfK391cNdKx2+1Xrj8PWxuMUOlv/JXsc56ymDrhcvf6+D1IYLwCtMgo9Ns2j8KyKl2uBr6flHhLkENN5GM+zkVxr+kv1LUY3cxIq2i6rf2HdjY/tG+nOpOAEgq/ubgmnEslFMGW7NP7y/rAxAaEYzOvh4AEetPV+2JlppAYhovwNvcdxs/Pr6z1r6NEJz5tz/RAEpAeJQQk5z2jwJyqvk6+90L/5N8vM92HLAOlU6Gx9bsN/aXAQC25WhyHScNhA8SE/CG5aw6+VnmI9IqDN9oDN9oDN9UFKeFAj3H0z5q9HapJoS7333fE7E+s7iI+/roLDp+YdAm2YWP01/Jqe4MTooI9lJJLSU5vb+sj2mywqo/FRq+qXg/GJ21+7PbJSaQmEYuNH6cvLO2B8FJ7+dwpTQpou+77wbFv05MWdyWHONfjh/v478VERwK9By/3CrwxeIyNg0xNZGfdufw4prfvv9+MACdfkoMnS/u+pOmao/FFP/imt/u3AYAPbp7nFTtZcdrsS2nwvCnbW/wPGQCGWz5pg8IzjxjXW28uOs/kwCU/b1VUgKJaWRC+0c7awEkFf/pIMcc+uKa3x6sKnr/VVmYlwhZ4rbkDJbvczDmWXn51W0Aar/nW/zc/e77HgRn/u5l90tNTHLk5Xd35MXAAEBg6ioP7hrby/Z9ZYkWUP5u/zauL+3C5e91fF9Tbjkowd2gUAY7vP7Kg2a7310XijlYnn3ZaHctYctBW6e+03dx5J6xE4h4OdbGIr3y5W2oLqv9vnFP9BrRBFIe4sJLji+Nf68GEJG2jadIi170l9TWd43tLQVffWduUuUb/2kTYWD8S/q+75W/22/TLrwXAdE2FcnL/ORXz/wpBe3llpTBL7+fy8y0xiq9BIuI5Ah+7+6F0/mdCN22HmWOJn0AiM1I+66sqLq+/eAaO8N7e9nxPkSkxf4/fDeWkhOTGblr99b6WgDKQJkOJaxLDAiNWK8MNlSX9fXsTOM6zwa+qWW84/ZEKLbtcvCmCxCqXDzWghpvfFdW28M4tgGgr6cTwK+4CkP0XSTCNyNxLYHENBMMI4qhb6wSqg3RtjbXcHDotgAloCurre7Mqf6GU8P/NPV09kEPcNUA70WItKl4XuYnK7/7S/rxoh5L0ENnX3KZ6bRhT7SHpJcQlRx+GJt8RNr7GTheJpDGf9WrEUU9ZV+VZ6y0Cfto/Hs1m+MNd0tNTHrkqN1NRsYOf6+l4Kv8MmBbjveixpzS+HHy8T5gPTMUAjiYO9ianba/rOj4hVWFuxYBi1KqvkkBYB5tXYyAay873gePTG7+aerhBuA4hu+Jv4sAnd+3GH/rGFCm0w+y2shZAvNjpaTxMoMDfQCCXxW0o4q39YuBL2cW77dugsjdUr45LV/g3cVx2qbS86o+XoRtORW5zLJ+sHxzWn5nbfGFLdG7xii9BIOo5PB/q3xfUQ/rsfqLcLJFsW8E53f2fffdYIq1kw6W/28tsH7nrkWwt+0QUwj5+d07i/a/kpb8SlryKzn5ZX1AcJLSJRP0xMFMyZOKuaHdi6Iz0kKBnm9ujL3Mdy98VQ3PTG7u6g1wOktw611Wbns/GOjL3/dxq3HwrnHwrnGw9cLHnCAg0QQS0/gKa35ru79xUewbwUCf8Z/uPEykTaXntS1Hk2ux2C9KOeMxASbchrXJv79fdNrHBKnYtJfxxnedwLZfeXfLCeF15Ld2j0g7fWaVAgDumf557/v/Lao+7mBRlAXMlHz9y3aql7GVdZpMwJgKzMbKrj/tia0sJl0fEOz//4Tuu/kuL+7an6k7nV9Wu/+VWvO14NAIoFNqAolpfI7Bu0YAMPHfvXdXwpJLrE0l5uXg9/FfrAQ8IMCE21hs8pKCG5gglaKyxt8yy4DWgqIeBGdm0Ba4qY78tDug8GciuRa96L8yes0q/81p+Z1W2ZUN94zO1I9hwIho9zdAt3/0SlEPgm0X027DKO+AJYLlcftdFqXk/ikld7C18R4A/L/F0f6L7l74n+TOPvOaUjSBxDQyoc/4T2AM+9rvXvj4+HH+CCkLPcdzko+LPkm0TSXlRUwU0iWHa5OXRHTCepTVmmPr2r8vcwxTJaYictTutrCOJTm5YKXgbNgVgz2qIqn4T56Z0IzVUif6LouiOU3Dt6YUTSAxjRdZtCQY6BxTKIDlWBKzdQqm707vd/BBhL6f8/6rnPX0Py8n76y1SyPaphLzIsYf1yTHJNkmb2XNlsyI2vyyr8ozVsZ+91U1kPQ7uVk6CS8gP7/7pGGxfwSYda0tzBYvhcLNxw6Wb2ZUe5GnbBV3v/u+RyTw3nPvwp6hIbx0EE0gMc2EE52wHk4ODxGH2dm//nTVb6P9F73ov+hF/0UCFbv4RXOCF/35dySKtan0vBww3tNhLAJM2OOK5Hxf7IJN3gIbVPHdd39h2t3exUZMSWSv3Y1M3LirEacTANuj8gtsjlRjQuFc3v3CwkQsI/T9IofNzW7DVOD6nc7GC0+9C3v4hvDSQTSBxDTeYM2WzAgAtfs3/8Uu4uxu48fpF0RP1nN0fwyadO4tpkXb1IW8eo6f5p4F2VpQ1OO+ABN8SJeczj6XbPIWXnz15VCg53hRfidC399C8XQE5GiZ7/y+LNsSAGSoZo4fd8lONVG8uOs/k47nVJflpPetf/V3v1oCDNR/lV/mxtSbpTU7Lb8TiAhW6i5/lG1z6+WMPWbPN+eMkb4+ALr//fijers0LHcvfFz2TW01gAh8n/3x99Y7hh4AfV99lP13/4Q9KWvcfJfW7P8pxsuvJixeAkD/9+Jvans6EcoJ8hdNIDGNPFiUcibH+EpOdWdRcsD3zD5ywKAr6+sBsO1XYl9nj+jZn62oyFgF3Csz/1KAS0hsU1fy6qve+YZuW9rOhMUD9V/ll0FsLki4iguS4+ZY5//bnduK9pdBlgshwjvIT7ujj9HoDKER61/9nbPfSfMqKw/+Lce/4Kv8stoes2c0dFua+agvd+nsq+50WGYlWDT3ve+P13J/a6ens7an0y4Ni0lnPo2kk+9Yks6+6s6+UCVTve68i0KJnuNFPdajNoKTim2OVBNNIDGNXPBfedBQ9HL26f1lfT3M0AwgIjiJ5yA5HqJzizL70vLLipLLigCEbkur+J2Jx6fuFIltWig5r9D3i97H5ePHi9hfHIlYf/qMl3+/xweRKDnuLgxgjq2Tmz+L8CKy+o04uePkN+LuGgcBvOgvL53Umv3G/j4nmwnbPwrI0Tn8xpTL72IcvAtAwEMsKYHENBOLyE8CGgfvutnig3eN7r+pi23qNK/Gj2N21lrOw7lrHJRV/U9SxH9J0n3JIQgRuL8RJ8O1+6TEl/qqy+8iqhKk6IxJp1fcL7Czo8U9jQt5+ZIMy5pJJ+rE5ET2UXUEQRAEQbgIrd19GYVyfZLzjXDb1vsHTlx5iLFDbUoQhBTI7+4C4h41woeg5ibcgMSG8CJcvztZ5gmCIAjC15jm7QIQBEEQBOEZbGLmBx5ovVqYScOSOSqqq6kDNTfhBiQ2hBdZMkdl+Z8s8wRBEATha5B2JwiCIAhfg7Q7QRAEQfgapN0JgiAIwtcg7U4QBEEQvgZpd4IgCILwNUi7EwRBEPLBaPB2CXwDeZ4zbzTUXy+o0fXd0ga/pApK3P3rBP8Ab5dpomDevabvFvCSaqOX392+MLsS+H5xTN904Vz91VtaAMGb3stYHx/g4+ecT2X5JFzD8NmxAme73xMyzsQHWD8aGz+7Xqet6bsFQBX8knLd3tVrAnk6XeNnx+oEH6tcdyZ1jcA9V75obNx3vk6VcOqdeIeUxsbPztfB5pbbRbKl6fCc3aVIKXnwgUj6+pLDNTr7i6qEjHe49TlWmOYLUiX82tljjY2fna/TImjvB7sCzVdcqTp3cxFhGmR2mo2h/ti+5PIO+8srcjrLJb7S+DHu51ToSzZFnOwAgBWRUTc72gAAUUea6lIDxjFX0cJwcCxM/bElyeUAELUisu0mU/jtFeWnEiamlOMIb3PLWT4JOWArNsYL6xJy2pwkt6oxAdHiHQEYFSjI9gqtQAd06YtNh+fsLuUbfwyfpcRn37QtmNtF4i2hqHYXqljP9kTrS0Xm1l95h//XlBv3qVIvAgB2nB84E2/9outV52IuPCyZo5LrOfP1x+KTyzuwYnvu+aYH2oEH2oEH2qaKI9ujbl6tNXq7cOOOobYGO46UdGoHHpRfqdMOdB7ZDqDtZEG9dwrTEZWSU1FvaYVIAG0n933GaQh9yabkciClpFM7UFd+5YG2qSIFuFmafKzRC0Uef6a2fBKu47+rrr6p0/xXkQIgMve89YpFh1lEy9zjBh5oBzrPb48C2k7GrysxOD476khJJ+fhnfVNnfUluSvEC+X2Fxn0Jfuyb3r4yfqmC/tSNs1RLWH1XHnqHNWSOapN645dqHfSs1I42Z3PiZL6Bq4RtSIS6Mg+zz+m6UvOXWTTiOOs6jyXixlZafemw8nlALZXlJ/iGCgCElJP1dWfWc8/o/ElAt4pv3ImdY1l4hmYmpG7AkCfzguaI+Cd8oG6Dyym+ICE1L07AKBDay1M47mTHcD2ig8sZQ5I+KBkB4DyOm/MSMaZqS6fhFv4BwSa/wSvMKK1Iqez/BTX+RUYf6ruvJMpfmAg51GB/gGBUn/71+0vAsYLGQ4mvbE92VB/bFPE7pyLNxGVsj03JRIAVmzPTdketaKjrTwnOWHTvibHYvQzC3dORlLfAE2H16UcdjZpsCNx4w4IjWmG2poOrMg5kCjhOc6rzlO5WJGT372+vhRA1JEMHgOOv2xduQZ9U0HGJ33mj8EHPsqwemFZTwkPqt2nBCwwbmG8sO98v921xN3ckcJpOSURqFoBcCeeRv0tACnrbNtrTWIKLpaX1jSdShA0H01KRORTUlsb9E3/d+6Tq7fYO8Gb3rNxE+pLNmXUbCwo34WmC5ZkLyWeOWMx4k2YRBETh+GzT0oB7HiPz6Qcf6oipTRZLh3K8NnBnDZE7kjBRT4nghvoS/Yll3dYLepNh7PLO6Ba984Ha97BKX3T4YjdpRd3H060Nezr9X0AopTuqAW9vq/tJnSAZO/hr/ceuXrxJF8TNBVk30TUkV8rcVXsIaJV55FcuMhIuzfWlAOI3LQ6wNslkQ7rRAEio1KCX9KWXrzZkZzAdbfor5SX8nrdopQZ74h6043/d+UmgGCl2Kitv371YnkHEBnFGMEYn32CRbuLllM6kSpLYYz9bXwdTKmMBDpu6Q3wZHiL1xGVT9G2NrfCisgdqmCg72J5advu0iucVtDpOtpuBteWbMo+ybZm282OtpvxF3UWN+TYJIqQI3rtTQDbEwWUN9OhLtY3nomXFpg2bjCG5agjZ/Zi30XPPNJs/xNwlgeaJzd5JRkJDuL9UqD9lXEicPXGqJMdFz+5sDfeppz19aXsmHBd5AlSqm7sudgiH8s8sxBcsXESWTjrj8Vn3wRSSh5or9R9cOpM+cCD+pIdXOe0/646s3c2dwWA7RVmj5qwWjXojQa90VBfcnhdQk4bInPrxaNRdLoOJiKjrvxKXfmVgiM27hnxckqhqSDbdqrBTJ+nCqLyKd7WAcrEnIr6gQflV858cOrMB1ce1OdEAW01/6e3eVBp9smOHeebHmiv1JWzaVB+bgwSRcgbVrSClAL3AwODJ7I4gjCG5RU5BR6UtKa6i3C0/9mQkLAdQJvOppcwI55qwpSF/683rQDswmuMF/LKgZS94jYziVU3xlzskY92n3wwi7ntFdzYTv81e49EAh1Xrhvce2j9sfiIhPiIhPjkk6VtiNxxXopD16DTQniJ75Fymo2H530gGN5rJKTabilkO3O/3b6eHecHrLuk/HcVjE2iCB9Bq9eLJxo/WMNy7kdy2BvifMTjh1k16Y0GtruZP+olba8PeOe97XbdUH/9ahuwI0HUoCK96saSiyOk3d2G3+uMwNUboxxmmtJJ2F1Scb6k4nxJxZHtUSs6Lu6Oj0g5LBahptfeFJ77e6KcbKhnSonwTgzCFdhhhbfy7VckzNLNbYkifARVoBfVqsWw7OHYDv+gKIhMXPhc7E5HPN6HlGxiVk0RCfHJJzuAjuzd8ZYrPFF7jsSv22ET3th47mQHVuTsFRsSXas6d3PhQ0Z+dwDsOkYGc0MJmIM2+dHq9Vjjzov4r2GXd/FrElIz6o/FJ5eXJh9b52z3J6O/hTr/2MvZdDjiZAdW2K7+pyZjlU/DZ8f2ZXsoHInwKeQ89I2HTZ7BP/AloO3m1VrjLgHlZ6it6YCdi52x57sy3QlcvbfCnFpXfy67HDuO7E00X1FK0p228cJNdReBqMRfi5TB5apzKxd+5LN29w98CfDS7q9xwDMT7QDG5yQyt3XfdCOhnOxJCzwH1AitKXU6h97oA3hAPg2fpcRnl3dw9gS7sMmY8FnERIvdrOFWfLgn0I+nTZ51EWYf5N2iZqg/ti/7JuwWr+4EzPuvSYhn/9YrAUC12npF4oMSdudEARc/uaBnPZXbD4jobHeqzvVchJCPdseaxBQ42c4vO4RsSgKR5OMGM7cVDjAZSzmNF9Yxqp03so//yYxLbAIDXiaIMcsnswMipaQudY1Lm4zHsvmHmAywoiUQWuHtzUQ158bFJm8mMPVMRUokbpYmJyyZo9q0jtm1qz23LmXJHFW8zWY5FnbE80KFWKLeSpi+7CwYEHC36lzNRRAZaXd2zoLyVIeDmQz1xzZ9JsU1MpGwbZBzzqZgzGzLPckz1DcZ7C4x03ZnK2wmlN1JRKXb5WTPeozMrT/Fe7w8/5NFyzNpGat8OrpIjMxWKDs6sg9yIy2YLUOTa6co4RqMaLWd3LfPfgQwfJaSehHe7FBtN8fHJm8lIOGDKw/qS3JTtketAJjTrG92AJFRKTkV9U0P7DbLMSOMd3ZXBaxPjAQ6sk/mtCEyd7eIudTdqnMtF2Fk5Xf331Vwvj9id2nbyfg5NcyeYEDbd/FmB4AdsovVDnjnve3Zu0sv7t50K2XjgYRAQF/zSc5Ft+e5xv/L252TjMgdRzYmBlqfZh/ubsXw2bGCK+WlAKJQt+9YnfWOtgPArU8O76sPSvxgl1vlbNyXkNMGRK0I1p4/vM/m1rq97OF01hrAkb2JgdDVn7tS3oExSaSMGaN8xq/bgdKL5an7lE17VwPGgozd/DvXcbM0WdW348jexEB9zSc5F+GbsyXCiv+ugiNXI052XNwdf2vF9pcS1yUG6nX1V6+Ud7QBWJHT6c2QlwmJk/df884Ha96B9Zz5OsdXNjZ+dv4cE7bCf/KPRAKDo1ZAekSezVdT9+44mXoREqcXbladi7kIISvtDgTGn3pQv27fwdSLNzuYQRNA1IrtBz4SWD56l/hTneeDzn2Sc7G8g/klFSByxxHOyWIu4b+r4Eh/xsnSiyc7LpqvRaXkHNi9S0Bx6LXmg03a+E44abtZ2nYzUrV7V8IYytl2s7TNYX2ZaDl6Nv5U53lk7C69eJL9hQOs2F4hz8byBGOTzzVn6nNuJeRcPBl/8SSAyB1Hmg7o4s0tYiEyt/4Mzu/LNldpVEpJAcUz+jqBqVc6Ay+c+yTn4s3StpulF9nLkTuO7N2b6lZ8rocYP5u8yxjrsss72LFrDJt3AuNP1bn/dSbqTVKk2xiqzoVchJHdb8RZ0RsNgCunB487Tn4jzqA3wnOlZZ4G6zHU/DTuU6XecnLeXNPhObv7bH90yLPl5GA06CHnA4PdQOQnAd2XT6NBL9C49ceWJJdbfifKoDeKygAhNzzwS5LsDmyf6k0ewgjISCPIEO5vxMls7c5lUo1rntWX4zenGbcnT72RyH35lFpXspraEhPHpBr6JhbqES4gp6g6giAIgiA8gYzX7oQYgaqU7Sony0D/oB0pLhznRBAEQfgKMva7yw8PeNSIyQM1N+EGJDaEF+H63ckyTxAEQRC+xjRvF4AgCIIgCM9gEzP/7FG7VwszaZg2ayXV1dSBmptwAxIbwotMm7XS8j9Z5gmCIAjC1yDtThAEQRC+Bml3giAIgvA1SLsTBEEQhK9B2p0gCIIgfA3S7gRBEATha5B2JwiCIEw6b5eA8CwyOmde92lu3m3Lp8Ck15dgaeyGpV4skXcx6eqa867V99wCXlImv/525jqFt4s0pdHV5eZdC0zKf2uDzWWTOvNS9bJXCt6N9VK5iEmA+tPc6ttCN7lC5UScTOpPL1XD5pbkx4rSkjErsxCbax5lO/tK3ZcZ1/T2F5e9cuDdWPo5CxkiH+3ekneoqpDzubAYALAq7OzBP045xXbny9gVpzWWjze6NcVVWav29ze8Rb3IW/RfqyosDlu+9y3bGedAdXFV4apAGuAIYVqqbQc3e15/a8M65j9BcdJ9+ofEQ92wuSX9sR7BlP/R6cIbjtd1y1+LzZy6yzD5Ih/tDgCwKjCT7s7AtXOfZxV3Z23dVPHhlZZ34Bql2gAACzxJREFUp5CC131br1m1+exBdr2uq/sydetpzY3TqZ/GTal6IAjfYdX+moK4INtr/d/+IfFQt/h373yZKpRsTI9tyT/3eUVxt3khUZU4qwpAzKrNyQeFjIWba26+bc5u4FpGZhaPvidkgcy0uxWFcqkiMz828/XcaVurNIf+kP/ahakzPVS+e+HZu5yP6946uvN0YjE0twcA0u4EMSkJWqpwy8Bjys/gWPI89FhdXW7q1ioNELNqc/pm9Byq0iAs/UMlqnSFN6o0W6sqdua35HMdBAM/MIrczbcgJhrZancz67L7P9QFHerOOteSmS9P16YpP/PSD3bXXn+7wHbmq7vTkpfxeY/5Y+jBPx5Y50InCVoWBkiYjBPeRnen5dq5zytusR9DN/83r9FeV/dl3kf1PdY0S/o/vcTvQ132dgFjsLnzZWxGfejBP9qIlt1F3jScxBkZ9T2b/2hnAeIWBi8lHLX3PvC8o7Awm9TOX+ROS/65v9n3FwAITLLke+fL2Iz65IILmWjJt1TmSwkl+TaeKQlV3ZK/9vMKzufQlxKSuG/nWF2S6rMlY+3njtU4Tug+/UPWDcTs3IziKic63jXufJm6tUqDsLM3mVVTS8ahKg2USe9mb3gXBXdaMlZkFhZnZrzeXmCx7d8Z6AGwKjBI+KmErJC9dgeUryXEHOrW3BrQQZauzTvNFcXMFDgMANCtuQHgFe5woPt0V9ChbgAxqzaHvqQrLO7WbN1U6LofPWbZEk+WnHCZ7h/uAMKaz9zQYTE7laFAT3FV4Y3Mwir7hlZn7kos7gYQs3MzblUVHsosrNqcjio+pyawKvDAu28pAdzRa250Qwdwnal2F3nTcBIX3ujGSzYWILbMq8LSX1ICup7i04nF9emVFwoEXLaiwqytcvoid/6WVVwFhMWsst7R3OgGgNct2l2vudEd+u2XsYdOsz3rRrfmRndQsd4S9iWpquv+lnWjG6s2p7/Elr2w+HRhcb1ZpfFUl/rcac0NhFrqh68+1ZmZhTdgV43jBWOTX7W/ZC9Siz32VPW50xogvVLAILo0tqByc+HWqsKPvjywznaMemmJHAdhgo/JsCNu6ZJQADf0/d4uCD939Bog5sMrLQ0XWhoutBTsj7FLUJcbdKgb2FzzqL2lIbsg/8KzR1dqdgI3Tqd+apKWR0veoW4AoUoyy3uNoGVhAAqvtThJo1QmnK288uzRhZb87IL87JZHV86uAm7UX7vDSVSXm1jcjVX7+x+1t+RntzS0P7uZn47AAw3tzx61P3vU3v9hGID0Svbjs3ENpWSEc9X+/oYLBfnZBfkXWm7mp6O78KMv+fdHiQuzIlPCi8R8+Ee2vzRcaGm4ULOTJ6vCQ6c1O/P7H7W3NFxgaxJVJ8xdRlJVM3ltfrsgP5t5u2eVm4Huim8F+t2dL08UA6v2HxAORtN9uivRc1pWDMYmH3a2wLMy0FJdDGBzkpOYu3WvpMN21GUGOlpgTB4mg3Zn0Wkd+q0c0Ol0cKp31deqAKRXcreaKDbs3R8DaKqapewx1X36eSGAnflCyyliAlC+lhADoDgzdm1ufl2Lmv0b6OEmWveWbSyS4vXNYeyK3wwrDwc54/XS2AIv7YZQX6uCnfJYGpu0k19NwhPC7AI785/lW8x1iswC21wkVLWr6L6t19g1jR3sSjrMfgY/PrA2+Q//KIeQI9GBjpAbk8Ayb0apkoGIO9J/uxsIWy5YNpP2FnimyUvjkled1tzQ9wMiwzobLru5RqZhB1OGpW+13ERGxmkm5kgstUl3BwAcDE4C8uACAzoxBaY59IdYSwGd+dGZwgB3WtScZ2oRJuCDGLMwu4L9MnHpklCALxehqrZgrrE7zXkfVWHV5qP2/vIB3R1znLmzhXtLxorTGmyuKQg8sWL8g2AsNnnPe/eXLF8F3NBp70AwwMLByy420BGyYzJo9zu2yyN5wYx3TmYe5kBTfpx2MMA8oITZrpYIL7H0rYKGtwrumHRA/52BoKVLgIG8FZncPce6T3NTDzmJfnIuD+JoDmUGHRJLtEoZyniab1UVFncncj3NPIXpztqaKS3zMQqzhxGraha7GovZ+UqQUAKnoTDqzMxC1m7x5Ql3yyyZcbLJMyhULwE3uiu+NWUKTB0YMwbHy84Y82W6xCJ4mRTaXa8BsPMVOaq3O80VN8ZSNue9hTlACk5CnAgvsFShBJRLmWFxgHvHHKFm3YIsdeexZGI+zC95jbOovXMpyMGQELPZHGaP7IK63Glbq5xuORE7oUwqEzr0S6/qGOtpGSb1p39IPJQZhPxnnNpgq/TOpdStp4Nm6flroy43sRgxH14pWAeMv4uwf5xt8hv27o8pPq059IcMJc/2Cl1dbuqhbiDs7F5zLVHA/CRE/n53U/5HVQDSX5ejXZqZ4TqNNFmyfBX4ggYGfrjhvLeY8tcyqv0KqfZJgulaVTewuabhrQ1LFcqlCuVShUP7CsmDdJYozQ9XStl5zIRH3Rrgc4q7Whi3hdkT2CgYKVXtiGLDu388uwoo/pva5voS5VKFcl12S+VmoCox0yFw8val2K1V42Mk56X+xHjZ5M0sfaukcnMMugu3bpo2a2XsWmZ/o+7E2l3TZq0MstksB1gGus1xFDA/iZC3dr/Tkr92U9YNkShW78GEsju68biwwT5Z52yGDCZQTri3mJgXj/nwCv/GZUKOOBquTf237VaTrDzYhm2b1J+2jNdveDBKkX8jE29hnOCeMLuJ5tAfMuqsH5lNXOZcpFQ1L06dC8xMyF73Q1NcNW5Gcj5udE9Adsp12S2PrtR8uDl9VRjAHFfXzRxuc7bySv8jriuHGejCkl+jsWgyITPL/I36vEz2Vwp6blVpmH4oy/PVdZ/m5lVVFQJYherM3GrOHQ2AW59nZP5t+evZmeugfPe/0w9lFhZnxt7anHzwFRWgvfZ5VrGzubk6k5nThIXevpRh6xJN2ps9hX9ZR+bEJu1EYXFVYmZg/944YCAvI9Nx5zcrD4c2xd7ef/T1JdD97URVlebG5hoPnlR/u1ldtwQAdH87cahKI2z6si8MAAxor9Vn3VLWNPAYqN0Q5jHQXbh1Zc/O/UdfX6K99nlWMTgzaUlVzXK7WX0nLgjov9Nc/dHpQiDmw7cFPBGxBz4MKzxUdeLTtzfYvo7g1vDxYaLi5BUb3s3e8C6svyJj3+gm9aeXGBHCzv+WQ+g+IR2ZaXd0FxZbJuBhMTsTju6N27BUjhPG/tvmIztu8J3dcaO78EZ3zDLmrObYgpv5y899nlVsjbWO2bnf7uAtHm50F95wWI68TtpdvmzIv3L21qas4tNBxacBxOzc339Q7+AXjy24mY+MzMLi0+zO6VWbz970UNTk0sAYQGN5MvPwgmzhcTm24NGV5Zl/yOJ+BWHpwvrPTWF2nZgPr5TgUuohay3VFFhrSVJVW2vjtPlSWPqHfywQnoiwZ2dVNeve5bzRBG9GnTgXgCgD1YeqNGwTy9E3SjhhGoBnj9q9XYzJwbRZKy11pc5cmXjLiVGhJWNWZo/Dj9/o7phgDcgiZA23uV3EpLsj5Thuiclc5w77W90uSRojnNLLM47CXJc7bWuVJRpOd8ckXCpJdTiR/W4MYiNPTPTbFpOIabNWPnv2jPlfbmt3H4f0+tRAoZRkX5GYzHXcmjG4KpwTJsxOM5JUh9TvxgBV3WRF3lF1BEEQBEG4Dq3d3SRo2eZ05xvhdm5eLrdQQIIgCGJqQH53F/A5jxrhDGpuwg1IbAgvwvW7k2WeIAiCIHyNad4uAEEQBEEQnsGydp9m+Y8gCIIgCN+ALPMEQRAE4WuQdicIgiAIX+P/B+uBxarVajJCAAAAAElFTkSuQmCC;" vertex="1" parent="1">
          <mxGeometry x="180" width="671" height="197" as="geometry" />
        </mxCell>
        <mxCell id="v2qxCZSfZdPtIH1DSBiw-3" value="Перевозчик" style="shape=umlActor;verticalLabelPosition=bottom;verticalAlign=top;html=1;outlineConnect=0;" vertex="1" parent="1">
          <mxGeometry x="385" y="300" width="30" height="60" as="geometry" />
        </mxCell>
        <mxCell id="v2qxCZSfZdPtIH1DSBiw-4" value="Получатель" style="shape=umlActor;verticalLabelPosition=bottom;verticalAlign=top;html=1;outlineConnect=0;" vertex="1" parent="1">
          <mxGeometry x="540" y="290" width="30" height="60" as="geometry" />
        </mxCell>
        <mxCell id="v2qxCZSfZdPtIH1DSBiw-10" value="ИМ&lt;div&gt;Площадка&lt;/div&gt;&lt;div&gt;Физ.Лицо (ФЛ)&lt;/div&gt;" style="text;html=1;align=center;verticalAlign=middle;whiteSpace=wrap;rounded=0;" vertex="1" parent="1">
          <mxGeometry x="175" y="400" width="60" height="30" as="geometry" />
        </mxCell>
        <mxCell id="v2qxCZSfZdPtIH1DSBiw-12" value="ББ" style="text;html=1;align=center;verticalAlign=middle;whiteSpace=wrap;rounded=0;" vertex="1" parent="1">
          <mxGeometry x="370" y="390" width="60" height="30" as="geometry" />
        </mxCell>
        <mxCell id="v2qxCZSfZdPtIH1DSBiw-14" value="ИМ&lt;div&gt;Площадка&lt;/div&gt;&lt;div&gt;Физ.Лицо (ФЛ)&lt;/div&gt;" style="text;html=1;align=center;verticalAlign=middle;whiteSpace=wrap;rounded=0;" vertex="1" parent="1">
          <mxGeometry x="525" y="400" width="60" height="30" as="geometry" />
        </mxCell>
        <mxCell id="v2qxCZSfZdPtIH1DSBiw-16" value="" style="endArrow=classic;html=1;rounded=0;entryX=0;entryY=0.3333333333333333;entryDx=0;entryDy=0;entryPerimeter=0;" edge="1" parent="1" source="v2qxCZSfZdPtIH1DSBiw-1" target="v2qxCZSfZdPtIH1DSBiw-3">
          <mxGeometry width="50" height="50" relative="1" as="geometry">
            <mxPoint x="260" y="420" as="sourcePoint" />
            <mxPoint x="310" y="370" as="targetPoint" />
          </mxGeometry>
        </mxCell>
        <mxCell id="v2qxCZSfZdPtIH1DSBiw-18" value="Прямой поток" style="edgeLabel;html=1;align=center;verticalAlign=middle;resizable=0;points=[];" vertex="1" connectable="0" parent="v2qxCZSfZdPtIH1DSBiw-16">
          <mxGeometry x="-0.0605" y="1" relative="1" as="geometry">
            <mxPoint y="-1" as="offset" />
          </mxGeometry>
        </mxCell>
        <mxCell id="v2qxCZSfZdPtIH1DSBiw-17" value="" style="endArrow=classic;html=1;rounded=0;entryX=0;entryY=0.3333333333333333;entryDx=0;entryDy=0;entryPerimeter=0;exitX=1;exitY=0.3333333333333333;exitDx=0;exitDy=0;exitPerimeter=0;" edge="1" parent="1" source="v2qxCZSfZdPtIH1DSBiw-3" target="v2qxCZSfZdPtIH1DSBiw-4">
          <mxGeometry width="50" height="50" relative="1" as="geometry">
            <mxPoint x="410" y="430" as="sourcePoint" />
            <mxPoint x="540" y="320" as="targetPoint" />
          </mxGeometry>
        </mxCell>
        <mxCell id="v2qxCZSfZdPtIH1DSBiw-19" value="Прямой поток" style="edgeLabel;html=1;align=center;verticalAlign=middle;resizable=0;points=[];" vertex="1" connectable="0" parent="v2qxCZSfZdPtIH1DSBiw-17">
          <mxGeometry x="-0.2258" y="4" relative="1" as="geometry">
            <mxPoint as="offset" />
          </mxGeometry>
        </mxCell>
        <mxCell id="v2qxCZSfZdPtIH1DSBiw-20" value="" style="endArrow=classic;html=1;rounded=0;entryX=1;entryY=1;entryDx=0;entryDy=0;entryPerimeter=0;exitX=0;exitY=1;exitDx=0;exitDy=0;exitPerimeter=0;" edge="1" parent="1" source="v2qxCZSfZdPtIH1DSBiw-4" target="v2qxCZSfZdPtIH1DSBiw-3">
          <mxGeometry width="50" height="50" relative="1" as="geometry">
            <mxPoint x="570" y="310" as="sourcePoint" />
            <mxPoint x="410" y="460" as="targetPoint" />
          </mxGeometry>
        </mxCell>
        <mxCell id="v2qxCZSfZdPtIH1DSBiw-22" value="Возвратный поток" style="edgeLabel;html=1;align=center;verticalAlign=middle;resizable=0;points=[];" vertex="1" connectable="0" parent="v2qxCZSfZdPtIH1DSBiw-20">
          <mxGeometry x="0.3091" y="2" relative="1" as="geometry">
            <mxPoint as="offset" />
          </mxGeometry>
        </mxCell>
        <mxCell id="v2qxCZSfZdPtIH1DSBiw-21" value="" style="endArrow=classic;html=1;rounded=0;exitX=0;exitY=1;exitDx=0;exitDy=0;exitPerimeter=0;entryX=1;entryY=1;entryDx=0;entryDy=0;entryPerimeter=0;" edge="1" parent="1" source="v2qxCZSfZdPtIH1DSBiw-3" target="v2qxCZSfZdPtIH1DSBiw-1">
          <mxGeometry width="50" height="50" relative="1" as="geometry">
            <mxPoint x="210" y="540" as="sourcePoint" />
            <mxPoint x="260" y="490" as="targetPoint" />
          </mxGeometry>
        </mxCell>
        <mxCell id="v2qxCZSfZdPtIH1DSBiw-23" value="Возвратный поток" style="edgeLabel;html=1;align=center;verticalAlign=middle;resizable=0;points=[];" vertex="1" connectable="0" parent="v2qxCZSfZdPtIH1DSBiw-21">
          <mxGeometry x="-0.0431" y="-1" relative="1" as="geometry">
            <mxPoint as="offset" />
          </mxGeometry>
        </mxCell>
        <mxCell id="v2qxCZSfZdPtIH1DSBiw-41" style="edgeStyle=orthogonalEdgeStyle;rounded=0;orthogonalLoop=1;jettySize=auto;html=1;entryX=0;entryY=0.5;entryDx=0;entryDy=0;" edge="1" parent="1" source="v2qxCZSfZdPtIH1DSBiw-32" target="v2qxCZSfZdPtIH1DSBiw-40">
          <mxGeometry relative="1" as="geometry" />
        </mxCell>
        <mxCell id="v2qxCZSfZdPtIH1DSBiw-32" value="ИМ" style="whiteSpace=wrap;html=1;rounded=1;" vertex="1" parent="1">
          <mxGeometry x="160" y="660" width="120" height="60" as="geometry" />
        </mxCell>
        <mxCell id="v2qxCZSfZdPtIH1DSBiw-42" style="edgeStyle=orthogonalEdgeStyle;rounded=0;orthogonalLoop=1;jettySize=auto;html=1;" edge="1" parent="1" source="v2qxCZSfZdPtIH1DSBiw-34">
          <mxGeometry relative="1" as="geometry">
            <mxPoint x="405" y="770" as="targetPoint" />
          </mxGeometry>
        </mxCell>
        <mxCell id="v2qxCZSfZdPtIH1DSBiw-34" value="Площадка" style="rounded=1;whiteSpace=wrap;html=1;" vertex="1" parent="1">
          <mxGeometry x="160" y="740" width="120" height="60" as="geometry" />
        </mxCell>
        <mxCell id="v2qxCZSfZdPtIH1DSBiw-43" style="edgeStyle=orthogonalEdgeStyle;rounded=0;orthogonalLoop=1;jettySize=auto;html=1;entryX=0;entryY=0.5;entryDx=0;entryDy=0;" edge="1" parent="1" source="v2qxCZSfZdPtIH1DSBiw-35" target="v2qxCZSfZdPtIH1DSBiw-40">
          <mxGeometry relative="1" as="geometry" />
        </mxCell>
        <mxCell id="v2qxCZSfZdPtIH1DSBiw-35" value="ФЛ" style="rounded=1;whiteSpace=wrap;html=1;" vertex="1" parent="1">
          <mxGeometry x="160" y="830" width="120" height="60" as="geometry" />
        </mxCell>
        <mxCell id="v2qxCZSfZdPtIH1DSBiw-40" value="ББ" style="whiteSpace=wrap;html=1;rounded=1;" vertex="1" parent="1">
          <mxGeometry x="420" y="740" width="120" height="60" as="geometry" />
        </mxCell>
        <mxCell id="v2qxCZSfZdPtIH1DSBiw-44" value="&lt;h1 style=&quot;margin-top: 0px;&quot;&gt;1 часть схемы&lt;/h1&gt;&lt;div&gt;Отправитель - Перевозчик. Прямой поток&lt;/div&gt;" style="text;html=1;whiteSpace=wrap;overflow=hidden;rounded=0;" vertex="1" parent="1">
          <mxGeometry x="160" y="490" width="180" height="120" as="geometry" />
        </mxCell>
      </root>
    </mxGraphModel>
  </diagram>
</mxfile>
